<svg xmlns="http://www.w3.org/2000/svg" width="24" height="23" viewBox="0 0 24 23"><style>.shp0{fill:#7b7b7b}</style><path id="Layer 1" d="M8 1L23 1L23 3L8 3L8 1Z" class="shp0"/><path id="Shape 1" d="M8 5L23 5L23 7L8 7L8 5Z" class="shp0"/><path id="Shape 2" d="M8 9L23 9L23 11L8 11L8 9Z" class="shp0"/><path id="Shape 3" d="M8 13L23 13L23 15L8 15L8 13Z" class="shp0"/><path id="Shape 4" d="M1 17L15 17L15 19L1 19L1 17Z" class="shp0"/><path id="Shape 5" d="M2 16L5 16L5 18L2 18L2 16Z" class="shp0"/><path id="Shape 6" d="M3 15L5 15L5 17L3 17L3 15Z" class="shp0"/><path id="Shape 7" d="M4 14L5 14L5 16L4 16L4 14Z" class="shp0"/><path id="Shape 8" d="M2 18L5 18L5 20L2 20L2 18Z" class="shp0"/><path id="Shape 9" d="M3 19L5 19L5 21L3 21L3 19Z" class="shp0"/><path id="Shape 10" d="M4 20L5 20L5 22L4 22L4 20Z" class="shp0"/></svg>